<svg width="111" height="83" viewBox="0 0 111 83" fill="none" xmlns="http://www.w3.org/2000/svg">
<path d="M110.108 1.04683C110.134 0.748085 109.913 0.484944 109.614 0.459083L104.746 0.0376523C104.447 0.0117912 104.184 0.233004 104.158 0.531744C104.132 0.830484 104.354 1.09363 104.652 1.11949L108.98 1.49409L108.605 5.82143C108.579 6.12017 108.8 6.38331 109.099 6.40917C109.398 6.43503 109.661 6.21382 109.687 5.91508L110.108 1.04683ZM2.06522 42.5349L2.58675 42.6859C3.68369 38.8965 5.38618 36.0827 7.60528 33.9609C9.8271 31.8365 12.5941 30.3798 15.8576 29.3476C22.4166 27.273 30.8542 26.9439 40.6845 26.2794C60.2933 24.954 85.076 22.2982 109.917 1.4156L109.567 1L109.218 0.584403C84.6511 21.2368 60.1621 23.8745 40.6113 25.196C30.8619 25.855 22.2478 26.1875 15.5302 28.3123C12.1554 29.3797 9.22789 30.9071 6.85485 33.176C4.4791 35.4476 2.6864 38.4364 1.54369 42.3839L2.06522 42.5349ZM43.6 82.441C43.6949 81.9064 43.6949 81.9064 43.6946 81.9064C43.6943 81.9063 43.6939 81.9062 43.6932 81.9061C43.6919 81.9059 43.6898 81.9055 43.687 81.905C43.6813 81.904 43.6727 81.9024 43.661 81.9003C43.6376 81.896 43.6024 81.8895 43.5557 81.8808C43.4623 81.8632 43.323 81.8366 43.1412 81.8004C42.7775 81.728 42.2437 81.6175 41.5666 81.4658C40.2123 81.1624 38.2856 80.6942 36.0007 80.036C31.428 78.7186 25.4348 76.6441 19.7278 73.6138C14.0148 70.5803 8.63054 66.6112 5.22687 61.5243C1.83854 56.4604 0.393376 50.2629 2.58675 42.6859L2.06522 42.5349L1.54369 42.3839C-0.742244 50.2807 0.764796 56.8084 4.32438 62.1282C7.86862 67.4251 13.428 71.4982 19.2185 74.5729C25.015 77.6506 31.0853 79.7499 35.7001 81.0794C38.009 81.7446 39.9571 82.218 41.3292 82.5254C42.0153 82.6792 42.5576 82.7914 42.9292 82.8654C43.115 82.9023 43.2581 82.9297 43.3552 82.948C43.4038 82.9571 43.4409 82.9639 43.466 82.9685C43.4786 82.9708 43.4881 82.9725 43.4947 82.9737C43.498 82.9743 43.5005 82.9748 43.5022 82.9751C43.5031 82.9752 43.5039 82.9754 43.5043 82.9754C43.5048 82.9755 43.5052 82.9756 43.6 82.441Z" fill="#FFC759"/>
</svg>
