<svg width="75" height="20" viewBox="0 0 75 20" fill="none" xmlns="http://www.w3.org/2000/svg">
<path d="M6.952 8.104C6.952 8.44533 6.84533 8.78133 6.632 9.112C6.41867 9.432 6.136 9.74133 5.784 10.04C5.432 10.328 5.04267 10.6 4.616 10.856C4.18933 11.112 3.76267 11.336 3.336 11.528C2.90933 11.72 2.52 11.8747 2.168 11.992C2.08267 12.408 2.04 12.776 2.04 13.096C2.04 13.2987 2.088 13.4427 2.184 13.528C2.28 13.6133 2.42933 13.656 2.632 13.656C3.08 13.656 3.55467 13.576 4.056 13.416C4.55733 13.256 5.06933 13.048 5.592 12.792C6.11467 12.536 6.616 12.264 7.096 11.976C7.576 11.688 8.01333 11.416 8.408 11.16C8.81333 10.904 9.14933 10.696 9.416 10.536C9.68267 10.376 9.85867 10.296 9.944 10.296C10.072 10.296 10.168 10.3387 10.232 10.424C10.3067 10.4987 10.344 10.5893 10.344 10.696C10.344 10.7813 10.2107 10.9467 9.944 11.192C9.688 11.4373 9.34133 11.7253 8.904 12.056C8.46667 12.376 7.976 12.7067 7.432 13.048C6.888 13.3893 6.32267 13.7093 5.736 14.008C5.16 14.3067 4.6 14.5467 4.056 14.728C3.52267 14.9093 3.04267 15 2.616 15C2.06133 15 1.62933 14.792 1.32 14.376C1.01067 13.96 0.856 13.3147 0.856 12.44C0.856 11.8533 0.930667 11.2613 1.08 10.664C1.24 10.0667 1.45333 9.496 1.72 8.952C1.99733 8.39733 2.30133 7.90667 2.632 7.48C2.97333 7.04267 3.33067 6.70133 3.704 6.456C4.07733 6.2 4.44 6.072 4.792 6.072C5.464 6.072 5.992 6.25867 6.376 6.632C6.76 7.00533 6.952 7.496 6.952 8.104ZM2.504 10.76C2.83467 10.5573 3.176 10.344 3.528 10.12C3.88 9.896 4.20533 9.66667 4.504 9.432C4.80267 9.19733 5.04267 8.952 5.224 8.696C5.416 8.42933 5.512 8.15733 5.512 7.88C5.512 7.48533 5.29867 7.288 4.872 7.288C4.60533 7.288 4.32267 7.45867 4.024 7.8C3.736 8.13067 3.45867 8.56267 3.192 9.096C2.92533 9.62933 2.696 10.184 2.504 10.76ZM10.009 14.424C9.849 14.424 9.73167 14.3653 9.657 14.248C9.58233 14.1307 9.545 13.9813 9.545 13.8C9.545 13.6507 9.641 13.4373 9.833 13.16C10.0357 12.872 10.297 12.536 10.617 12.152C10.9477 11.7573 11.3103 11.336 11.705 10.888C12.0997 10.44 12.4997 9.98667 12.905 9.528C12.4143 8.696 12.041 8.04 11.785 7.56C11.529 7.06933 11.401 6.68533 11.401 6.408C11.401 6.216 11.465 6.04 11.593 5.88C11.721 5.70933 11.849 5.624 11.977 5.624C12.1263 5.624 12.2703 5.71467 12.409 5.896C12.5583 6.06667 12.7397 6.36 12.953 6.776C13.1663 7.18133 13.4543 7.74133 13.817 8.456C14.4037 7.752 14.889 7.176 15.273 6.728C15.6677 6.28 15.9823 5.93333 16.217 5.688C16.4623 5.44267 16.6543 5.272 16.793 5.176C16.9423 5.06933 17.0703 5.016 17.177 5.016C17.305 5.016 17.4117 5.06933 17.497 5.176C17.5823 5.272 17.625 5.432 17.625 5.656C17.625 5.86933 17.5237 6.13067 17.321 6.44C17.129 6.74933 16.873 7.08533 16.553 7.448C16.233 7.81067 15.8863 8.184 15.513 8.568C15.1503 8.94133 14.8037 9.304 14.473 9.656C15.0063 10.5733 15.5183 11.3733 16.009 12.056C16.4997 12.728 16.8943 13.2827 17.193 13.72C17.5023 14.1573 17.657 14.4773 17.657 14.68C17.657 14.8187 17.625 14.9253 17.561 15C17.497 15.064 17.3743 15.096 17.193 15.096C17.065 15.096 16.9157 15.0427 16.745 14.936C16.5743 14.8293 16.3557 14.6213 16.089 14.312C15.833 14.0027 15.497 13.5547 15.081 12.968C14.6757 12.3707 14.1743 11.592 13.577 10.632C13.2037 11.048 12.8303 11.48 12.457 11.928C12.0943 12.3653 11.7477 12.776 11.417 13.16C11.097 13.5333 10.8143 13.8373 10.569 14.072C10.3237 14.3067 10.137 14.424 10.009 14.424ZM20.3338 15.416C19.9284 15.416 19.5924 15.2293 19.3258 14.856C19.0698 14.472 18.9418 13.976 18.9418 13.368C18.9418 12.8027 19.0804 12.2427 19.3578 11.688C19.6458 11.1333 20.0244 10.6 20.4938 10.088C20.9631 9.576 21.4751 9.10667 22.0298 8.68C22.5844 8.24267 23.1391 7.864 23.6938 7.544C24.2591 7.224 24.7764 6.97333 25.2458 6.792C25.7151 6.61067 26.0884 6.52 26.3658 6.52C26.5151 6.52 26.6378 6.552 26.7338 6.616C26.8298 6.66933 26.8778 6.77067 26.8778 6.92C26.8778 7.016 26.8404 7.10667 26.7658 7.192C26.7764 7.192 26.7871 7.192 26.7978 7.192C27.0324 7.192 27.1498 7.33067 27.1498 7.608C27.1498 7.704 27.1124 7.90133 27.0378 8.2C26.9631 8.488 26.8778 8.85067 26.7818 9.288C26.6858 9.72533 26.6004 10.2107 26.5258 10.744C26.4511 11.2667 26.4138 11.8 26.4138 12.344C26.4138 12.8027 26.5898 13.032 26.9418 13.032C27.3364 13.032 27.7364 12.9413 28.1418 12.76C28.5471 12.5787 28.9418 12.36 29.3258 12.104C29.7098 11.8373 30.0618 11.576 30.3818 11.32C30.7018 11.0533 30.9738 10.8293 31.1978 10.648C31.4218 10.4667 31.5818 10.376 31.6778 10.376C31.7631 10.376 31.8378 10.4027 31.9018 10.456C31.9658 10.5093 31.9978 10.5947 31.9978 10.712C31.9978 10.8187 31.8911 11.0107 31.6778 11.288C31.4644 11.5653 31.1818 11.88 30.8298 12.232C30.4778 12.584 30.0831 12.9253 29.6458 13.256C29.2084 13.5867 28.7604 13.8587 28.3018 14.072C27.8431 14.2853 27.4058 14.392 26.9898 14.392C26.6698 14.392 26.3764 14.296 26.1098 14.104C25.8538 13.9013 25.6458 13.56 25.4858 13.08C25.3364 12.6 25.2618 11.9387 25.2618 11.096V10.696C24.7391 11.56 24.1898 12.3493 23.6138 13.064C23.0484 13.7787 22.4831 14.3493 21.9178 14.776C21.3631 15.2027 20.8351 15.416 20.3338 15.416ZM26.0618 7.672C26.0084 7.69333 25.9338 7.72533 25.8378 7.768C25.3471 7.992 24.8351 8.26933 24.3018 8.6C23.7791 8.93067 23.2671 9.29867 22.7658 9.704C22.2751 10.1093 21.8324 10.5307 21.4378 10.968C21.0431 11.4053 20.7284 11.848 20.4938 12.296C20.2591 12.744 20.1418 13.1813 20.1418 13.608C20.1418 13.7467 20.1684 13.8533 20.2218 13.928C20.2858 14.0027 20.3924 14.04 20.5418 14.04C20.7551 14.04 21.0324 13.9067 21.3738 13.64C21.7151 13.3627 22.0884 13 22.4938 12.552C22.9098 12.104 23.3258 11.608 23.7418 11.064C24.1578 10.52 24.5524 9.97067 24.9258 9.416C25.3098 8.86133 25.6404 8.34933 25.9178 7.88C25.9604 7.80533 26.0084 7.736 26.0618 7.672ZM43.4505 14.52C43.4398 14.6907 43.3705 14.8293 43.2425 14.936C43.1145 15.0427 42.9652 15.096 42.7945 15.096C42.6025 15.096 42.4425 15.032 42.3145 14.904C42.1865 14.776 42.1225 14.5787 42.1225 14.312C42.1225 13.6187 42.1545 12.8667 42.2185 12.056C42.2825 11.2347 42.3625 10.424 42.4585 9.624C42.5545 8.81333 42.6505 8.06667 42.7465 7.384C42.3945 7.88533 42.0105 8.44 41.5945 9.048C41.1892 9.656 40.7732 10.2587 40.3465 10.856C39.9198 11.4533 39.5038 12.0027 39.0985 12.504C38.6932 12.9947 38.3252 13.3947 37.9945 13.704C37.6638 14.0027 37.3918 14.152 37.1785 14.152C36.7838 14.152 36.4425 13.9973 36.1545 13.688C35.8665 13.368 35.7225 12.968 35.7225 12.488C35.7225 12.296 35.7438 12.0347 35.7865 11.704C35.8292 11.3627 35.8772 11.0053 35.9305 10.632C35.9838 10.2587 36.0318 9.912 36.0745 9.592C36.1172 9.26133 36.1385 9.016 36.1385 8.856C36.1385 8.70667 36.1225 8.57867 36.0905 8.472C36.0692 8.35467 36.0158 8.296 35.9305 8.296C35.8025 8.296 35.6265 8.44 35.4025 8.728C35.1785 9.00533 34.9278 9.36267 34.6505 9.8C34.3838 10.2373 34.1065 10.7013 33.8185 11.192C33.5412 11.6827 33.2798 12.1467 33.0345 12.584C32.7892 13.0107 32.5812 13.3467 32.4105 13.592C32.2718 13.8267 32.1438 13.9973 32.0265 14.104C31.9092 14.2107 31.7652 14.264 31.5945 14.264C31.3918 14.264 31.2052 14.1573 31.0345 13.944C30.8745 13.7307 30.7945 13.4693 30.7945 13.16C30.7945 12.9787 30.8265 12.696 30.8905 12.312C30.9545 11.9173 31.0345 11.4853 31.1305 11.016C31.2372 10.5467 31.3385 10.088 31.4345 9.64C31.5412 9.18133 31.6318 8.792 31.7065 8.472C31.7918 8.10933 31.8985 7.864 32.0265 7.736C32.1545 7.608 32.2932 7.544 32.4425 7.544C32.6452 7.544 32.8052 7.61867 32.9225 7.768C33.0505 7.90667 33.1145 8.12533 33.1145 8.424C33.1145 8.47733 33.0825 8.62133 33.0185 8.856C32.9545 9.08 32.8745 9.35733 32.7785 9.688C32.6932 10.008 32.5972 10.344 32.4905 10.696C32.3945 11.048 32.3145 11.3733 32.2505 11.672C32.4852 11.2773 32.7305 10.8507 32.9865 10.392C33.2532 9.93333 33.5198 9.48 33.7865 9.032C34.0532 8.57333 34.3198 8.15733 34.5865 7.784C34.8532 7.4 35.1145 7.096 35.3705 6.872C35.6265 6.648 35.8718 6.536 36.1065 6.536C36.3838 6.536 36.6398 6.62133 36.8745 6.792C37.1198 6.96267 37.3172 7.192 37.4665 7.48C37.6158 7.768 37.6905 8.088 37.6905 8.44C37.6905 8.68533 37.6478 9.032 37.5625 9.48C37.4772 9.91733 37.3865 10.392 37.2905 10.904C37.2052 11.416 37.1518 11.9013 37.1305 12.36C37.1305 12.4667 37.1625 12.52 37.2265 12.52C37.2798 12.52 37.3438 12.4827 37.4185 12.408C37.7278 12.0667 38.0692 11.656 38.4425 11.176C38.8158 10.6853 39.1945 10.168 39.5785 9.624C39.9732 9.08 40.3625 8.54667 40.7465 8.024C41.1305 7.49067 41.4878 7.01067 41.8185 6.584C42.1598 6.14667 42.4585 5.8 42.7145 5.544C42.9812 5.288 43.1892 5.16 43.3385 5.16C43.6585 5.16 43.9038 5.25067 44.0745 5.432C44.2452 5.61333 44.3305 5.91733 44.3305 6.344C44.3305 6.68533 44.3038 7.128 44.2505 7.672C44.2078 8.216 44.1492 8.808 44.0745 9.448C44.0105 10.088 43.9358 10.7333 43.8505 11.384C43.7758 12.024 43.7012 12.6213 43.6265 13.176C43.5518 13.72 43.4932 14.168 43.4505 14.52ZM46.7815 19.752C46.6002 19.752 46.4562 19.688 46.3495 19.56C46.2535 19.432 46.2055 19.1867 46.2055 18.824C46.2055 18.3013 46.2428 17.6933 46.3175 17C46.3922 16.3067 46.4935 15.5707 46.6215 14.792C46.7602 14.0133 46.9095 13.2347 47.0695 12.456C47.2402 11.6773 47.4162 10.936 47.5975 10.232C47.7895 9.528 47.9762 8.904 48.1575 8.36C48.3388 7.80533 48.5042 7.368 48.6535 7.048C48.8135 6.728 48.9522 6.568 49.0695 6.568C49.2722 6.568 49.4322 6.62667 49.5495 6.744C49.6775 6.86133 49.7415 7.03733 49.7415 7.272C49.7415 7.57067 49.6508 8.056 49.4695 8.728C49.2882 9.38933 49.0535 10.2533 48.7655 11.32C49.0322 10.8293 49.3202 10.3173 49.6295 9.784C49.9388 9.25067 50.2642 8.73333 50.6055 8.232C50.9468 7.72 51.2882 7.26133 51.6295 6.856C51.9815 6.45067 52.3228 6.12533 52.6535 5.88C52.9842 5.63467 53.3042 5.512 53.6135 5.512C53.9442 5.512 54.2375 5.61867 54.4935 5.832C54.7495 6.03467 54.9468 6.312 55.0855 6.664C55.2348 7.00533 55.3095 7.38933 55.3095 7.816C55.3095 8.70133 55.1602 9.56 54.8615 10.392C54.5628 11.2133 54.1468 11.9547 53.6135 12.616C53.0908 13.2667 52.4722 13.784 51.7575 14.168C51.0535 14.552 50.2908 14.744 49.4695 14.744C49.1602 14.744 48.8828 14.728 48.6375 14.696C48.3922 14.664 48.1788 14.6267 47.9975 14.584C47.8695 15.288 47.7468 16.0133 47.6295 16.76C47.5122 17.5067 47.3948 18.3013 47.2775 19.144C47.2455 19.368 47.1922 19.5227 47.1175 19.608C47.0428 19.704 46.9308 19.752 46.7815 19.752ZM53.9015 6.728C53.6775 6.728 53.4108 6.856 53.1015 7.112C52.8028 7.368 52.4775 7.70933 52.1255 8.136C51.7842 8.552 51.4375 9.016 51.0855 9.528C50.7335 10.0293 50.3922 10.5413 50.0615 11.064C49.7308 11.5867 49.4268 12.072 49.1495 12.52C48.8828 12.968 48.6642 13.3413 48.4935 13.64C49.3255 13.6187 50.0562 13.4533 50.6855 13.144C51.3148 12.824 51.8535 12.4187 52.3015 11.928C52.7495 11.4267 53.1122 10.888 53.3895 10.312C53.6775 9.72533 53.8855 9.16 54.0135 8.616C54.1415 8.06133 54.2055 7.58133 54.2055 7.176C54.2055 6.87733 54.1042 6.728 53.9015 6.728ZM59.9557 15.64C59.1344 15.64 58.4891 15.3733 58.0198 14.84C57.5611 14.296 57.3318 13.5387 57.3318 12.568C57.3318 11.9707 57.4118 11.272 57.5718 10.472C57.7424 9.66133 57.9558 8.808 58.2118 7.912C58.4784 7.00533 58.7664 6.10933 59.0758 5.224C59.3851 4.33867 59.6838 3.51733 59.9718 2.76C60.2704 1.992 60.5318 1.352 60.7558 0.839999C60.8838 0.551999 61.0651 0.407999 61.2998 0.407999C61.6198 0.407999 61.7798 0.605332 61.7798 0.999999C61.7798 1.128 61.7211 1.38933 61.6038 1.784C61.4864 2.17867 61.3318 2.66933 61.1398 3.256C60.9478 3.832 60.7398 4.472 60.5158 5.176C60.2918 5.88 60.0624 6.60533 59.8278 7.352C59.6038 8.088 59.3958 8.81867 59.2038 9.544C59.0118 10.2587 58.8571 10.9307 58.7398 11.56C58.6224 12.1893 58.5638 12.728 58.5638 13.176C58.5638 13.464 58.6384 13.6933 58.7878 13.864C58.9478 14.024 59.1611 14.104 59.4278 14.104C59.9184 14.104 60.4091 14.008 60.8998 13.816C61.4011 13.6133 61.8811 13.368 62.3398 13.08C62.7984 12.7813 63.2144 12.488 63.5878 12.2C63.9718 11.9013 64.2971 11.656 64.5638 11.464C64.8304 11.2613 65.0171 11.16 65.1238 11.16C65.3584 11.16 65.4758 11.288 65.4758 11.544C65.4758 11.6293 65.3904 11.7893 65.2198 12.024C65.0491 12.248 64.8198 12.5147 64.5318 12.824C64.2438 13.1333 63.9078 13.4533 63.5238 13.784C63.1504 14.104 62.7558 14.408 62.3398 14.696C61.9344 14.9733 61.5238 15.1973 61.1078 15.368C60.7024 15.5493 60.3184 15.64 59.9557 15.64ZM71.1239 8.104C71.1239 8.44533 71.0172 8.78133 70.8039 9.112C70.5905 9.432 70.3079 9.74133 69.9559 10.04C69.6039 10.328 69.2145 10.6 68.7879 10.856C68.3612 11.112 67.9345 11.336 67.5079 11.528C67.0812 11.72 66.6919 11.8747 66.3399 11.992C66.2545 12.408 66.2119 12.776 66.2119 13.096C66.2119 13.2987 66.2599 13.4427 66.3559 13.528C66.4519 13.6133 66.6012 13.656 66.8039 13.656C67.2519 13.656 67.7265 13.576 68.2279 13.416C68.7292 13.256 69.2412 13.048 69.7639 12.792C70.2865 12.536 70.7879 12.264 71.2679 11.976C71.7479 11.688 72.1852 11.416 72.5799 11.16C72.9852 10.904 73.3212 10.696 73.5879 10.536C73.8545 10.376 74.0305 10.296 74.1159 10.296C74.2439 10.296 74.3399 10.3387 74.4039 10.424C74.4785 10.4987 74.5159 10.5893 74.5159 10.696C74.5159 10.7813 74.3825 10.9467 74.1159 11.192C73.8599 11.4373 73.5132 11.7253 73.0759 12.056C72.6385 12.376 72.1479 12.7067 71.6039 13.048C71.0599 13.3893 70.4945 13.7093 69.9079 14.008C69.3319 14.3067 68.7719 14.5467 68.2279 14.728C67.6945 14.9093 67.2145 15 66.7879 15C66.2332 15 65.8012 14.792 65.4919 14.376C65.1825 13.96 65.0279 13.3147 65.0279 12.44C65.0279 11.8533 65.1025 11.2613 65.2519 10.664C65.4119 10.0667 65.6252 9.496 65.8919 8.952C66.1692 8.39733 66.4732 7.90667 66.8039 7.48C67.1452 7.04267 67.5025 6.70133 67.8759 6.456C68.2492 6.2 68.6119 6.072 68.9639 6.072C69.6359 6.072 70.1639 6.25867 70.5479 6.632C70.9319 7.00533 71.1239 7.496 71.1239 8.104ZM66.6759 10.76C67.0065 10.5573 67.3479 10.344 67.6999 10.12C68.0519 9.896 68.3772 9.66667 68.6759 9.432C68.9745 9.19733 69.2145 8.952 69.3959 8.696C69.5879 8.42933 69.6839 8.15733 69.6839 7.88C69.6839 7.48533 69.4705 7.288 69.0439 7.288C68.7772 7.288 68.4945 7.45867 68.1959 7.8C67.9079 8.13067 67.6305 8.56267 67.3639 9.096C67.0972 9.62933 66.8679 10.184 66.6759 10.76Z" fill="#FFDD87"/>
</svg>
