<svg width="118" height="52" viewBox="0 0 118 52" fill="none" xmlns="http://www.w3.org/2000/svg">
<path d="M2.87118 11.2531L7.81784 8.88291L5.97002 15.7791L2.87118 11.2531Z" fill="#FFC759"/>
<rect x="9.75879" y="1.63843" width="111.279" height="22.1394" rx="1.78486" transform="rotate(15 9.75879 1.63843)" fill="#FFC759"/>
<path d="M16.4199 11.3395L14.6281 18.0267L13.6191 17.7564L15.4109 11.0692L16.4199 11.3395ZM19.7041 14.0114L19.4941 14.795L16.7546 14.061L16.9646 13.2773L19.7041 14.0114ZM18.0212 12.2726L18.9975 12.5342L17.7263 17.2785C17.6755 17.4679 17.6656 17.6181 17.6965 17.729C17.7281 17.8378 17.7838 17.9215 17.8637 17.9803C17.9464 18.0374 18.041 18.0803 18.1477 18.1089C18.2261 18.1299 18.2961 18.1428 18.3578 18.1477C18.4195 18.1525 18.4675 18.1561 18.5019 18.1583L18.4621 19.0121C18.3997 19.0187 18.3133 19.0188 18.203 19.0126C18.0921 19.0086 17.958 18.9866 17.8007 18.9468C17.5427 18.8823 17.3155 18.7725 17.1191 18.6172C16.9227 18.4619 16.7828 18.2658 16.6993 18.0288C16.6158 17.7917 16.6146 17.5219 16.6957 17.2194L18.0212 12.2726ZM22.3226 12.9212L22.1546 13.5481C22.105 13.7331 22.018 13.9186 21.8935 14.1046C21.7718 14.2889 21.6238 14.4581 21.4496 14.612C21.2753 14.766 21.0863 14.888 20.8825 14.9781L20.492 14.5025C20.6706 14.3497 20.835 14.1802 20.9852 13.9942C21.1376 13.8087 21.2479 13.5886 21.3161 13.3339L21.4867 12.6972L22.3226 12.9212ZM25.615 16.9076L24.6882 16.8272C24.6815 16.7041 24.6516 16.5806 24.5984 16.4567C24.5475 16.3334 24.4633 16.221 24.3458 16.1195C24.2284 16.0181 24.0684 15.9402 23.866 15.886C23.5895 15.8119 23.3421 15.8121 23.1239 15.8866C22.9062 15.9589 22.7714 16.0919 22.7195 16.2857C22.6745 16.4533 22.7004 16.6049 22.7971 16.7404C22.8937 16.876 23.0716 17.0135 23.3305 17.1528L24.0782 17.5492C24.5111 17.7795 24.811 18.036 24.9779 18.3187C25.1448 18.6014 25.1807 18.9202 25.0857 19.275C25.0052 19.5754 24.8464 19.8198 24.6092 20.0082C24.3748 20.1951 24.0853 20.3135 23.7406 20.3634C23.3981 20.414 23.0244 20.385 22.6195 20.2765C22.0579 20.126 21.6318 19.8835 21.3411 19.549C21.051 19.2123 20.9252 18.8111 20.9637 18.3455L21.9458 18.4546C21.9387 18.7164 22.0096 18.9349 22.1586 19.1101C22.3082 19.2832 22.53 19.4091 22.8238 19.4878C23.1438 19.5736 23.4174 19.5757 23.6445 19.4943C23.8723 19.4106 24.0121 19.2719 24.064 19.0782C24.106 18.9215 24.0825 18.774 23.9935 18.6359C23.9067 18.4983 23.7509 18.3702 23.5261 18.2516L22.727 17.838C22.2875 17.606 21.9869 17.3434 21.8251 17.0504C21.6655 16.758 21.6335 16.4333 21.7292 16.0763C21.8085 15.7803 21.9606 15.5434 22.1855 15.3657C22.4105 15.188 22.6854 15.0762 23.0104 15.0303C23.3359 14.9822 23.6869 15.0086 24.0635 15.1095C24.6055 15.2547 25.0007 15.4866 25.249 15.8051C25.4979 16.1214 25.6199 16.4889 25.615 16.9076ZM28.2824 21.6854L30.0742 14.9982L34.2211 16.1093L33.9884 16.9779L30.8505 16.1371L30.3045 18.1746L33.1453 18.9358L32.9134 19.8011L30.0727 19.0399L29.2914 21.9557L28.2824 21.6854ZM33.5288 23.0912L34.8727 18.0758L35.8163 18.3286L35.6029 19.1253L35.6551 19.1393C35.8189 18.8939 36.0368 18.7248 36.309 18.6321C36.5839 18.5378 36.8683 18.53 37.1621 18.6087C37.2231 18.6251 37.2944 18.6465 37.3759 18.673C37.4596 18.7001 37.5246 18.7233 37.5707 18.7427L37.3205 19.6766C37.2842 19.6552 37.2178 19.6245 37.1211 19.5846C37.0251 19.5426 36.927 19.5081 36.8269 19.4813C36.5961 19.4195 36.3773 19.4133 36.1704 19.4629C35.9662 19.5108 35.7888 19.6068 35.6383 19.7508C35.4883 19.8926 35.3841 20.0723 35.3258 20.29L34.5051 23.3528L33.5288 23.0912ZM39.0126 24.669C38.5185 24.5366 38.1212 24.317 37.8208 24.0102C37.5231 23.7018 37.329 23.329 37.2385 22.8918C37.1508 22.453 37.1766 21.9735 37.316 21.4532C37.4537 20.9395 37.6708 20.5123 37.9673 20.1718C38.266 19.8319 38.6179 19.5984 39.0229 19.4713C39.4301 19.3448 39.8667 19.3439 40.3325 19.4687C40.6155 19.5446 40.8772 19.6649 41.1177 19.8296C41.3582 19.9944 41.5572 20.2052 41.7147 20.462C41.8722 20.7189 41.969 21.0236 42.0052 21.3763C42.0419 21.7268 41.9993 22.1295 41.8774 22.5844L41.7847 22.9305L37.7978 21.8623L37.9938 21.1309L41.024 21.9428C41.0928 21.6859 41.1015 21.4444 41.0501 21.2184C40.9993 20.9901 40.8946 20.7929 40.7361 20.6268C40.5798 20.4612 40.3754 20.3447 40.1229 20.277C39.8487 20.2035 39.5911 20.2068 39.3503 20.287C39.1123 20.3655 38.9089 20.4976 38.7402 20.6834C38.5742 20.8676 38.4576 21.0848 38.3905 21.3351L38.2374 21.9066C38.1476 22.2418 38.13 22.5427 38.1845 22.8093C38.2413 23.0765 38.3597 23.3007 38.5397 23.4819C38.7204 23.661 38.9533 23.7887 39.2385 23.8651C39.4235 23.9147 39.5992 23.9338 39.7656 23.9224C39.9326 23.9088 40.0858 23.8635 40.2254 23.7866C40.365 23.7097 40.4852 23.6007 40.586 23.4598L41.4654 23.8739C41.3185 24.1262 41.1218 24.3289 40.8755 24.4822C40.6318 24.6339 40.3512 24.7279 40.0335 24.7641C39.7186 24.7987 39.3783 24.767 39.0126 24.669ZM44.4092 26.115C43.9151 25.9826 43.5178 25.763 43.2174 25.4562C42.9197 25.1478 42.7256 24.775 42.6351 24.3378C42.5474 23.899 42.5732 23.4195 42.7126 22.8992C42.8503 22.3855 43.0674 21.9584 43.3639 21.6179C43.6626 21.2779 44.0145 21.0444 44.4195 20.9173C44.8268 20.7908 45.2633 20.7899 45.7291 20.9147C46.0121 20.9906 46.2738 21.1109 46.5143 21.2756C46.7548 21.4404 46.9538 21.6512 47.1113 21.908C47.2688 22.1649 47.3656 22.4696 47.4018 22.8223C47.4385 23.1728 47.3959 23.5755 47.274 24.0304L47.1813 24.3766L43.1944 23.3083L43.3904 22.5769L46.4206 23.3888C46.4894 23.1319 46.4981 22.8905 46.4467 22.6644C46.3959 22.4361 46.2912 22.2389 46.1327 22.0728C45.9764 21.9073 45.772 21.7907 45.5195 21.723C45.2453 21.6495 44.9877 21.6528 44.7469 21.733C44.5089 21.8115 44.3055 21.9437 44.1368 22.1294C43.9708 22.3136 43.8542 22.5308 43.7871 22.7812L43.634 23.3526C43.5442 23.6878 43.5266 23.9887 43.5811 24.2553C43.6379 24.5225 43.7563 24.7467 43.9363 24.9279C44.117 25.107 44.3499 25.2347 44.6351 25.3111C44.8201 25.3607 44.9958 25.3798 45.1622 25.3684C45.3292 25.3548 45.4824 25.3095 45.622 25.2326C45.7616 25.1557 45.8818 25.0468 45.9826 24.9058L46.862 25.3199C46.7151 25.5722 46.5184 25.775 46.2721 25.9283C46.0284 26.08 45.7478 26.1739 45.4301 26.2101C45.1152 26.2447 44.7749 26.213 44.4092 26.115ZM53.7898 23.1446L53.5798 23.9282L50.8403 23.1942L51.0503 22.4105L53.7898 23.1446ZM52.1069 21.4058L53.0832 21.6674L51.812 26.4118C51.7612 26.6011 51.7513 26.7513 51.7822 26.8623C51.8137 26.971 51.8695 27.0548 51.9494 27.1135C52.0321 27.1707 52.1267 27.2135 52.2334 27.2421C52.3118 27.2631 52.3818 27.276 52.4435 27.2809C52.5052 27.2858 52.5532 27.2893 52.5876 27.2915L52.5478 28.1453C52.4854 28.1519 52.399 28.1521 52.2887 28.1459C52.1778 28.1418 52.0437 28.1199 51.8864 28.08C51.6284 28.0156 51.4012 27.9057 51.2048 27.7504C51.0084 27.5951 50.8685 27.399 50.785 27.162C50.7015 26.925 50.7003 26.6552 50.7814 26.3526L52.1069 21.4058ZM55.5575 29.1022C55.0873 28.9762 54.7058 28.7585 54.4131 28.4491C54.1204 28.1397 53.9291 27.7653 53.8392 27.3259C53.7492 26.8865 53.7737 26.4078 53.9125 25.8897C54.0519 25.3695 54.2707 24.9405 54.5688 24.6027C54.867 24.265 55.2202 24.0353 55.6284 23.9137C56.0366 23.7921 56.4758 23.7943 56.946 23.9203C57.4162 24.0463 57.7976 24.264 58.0903 24.5734C58.3831 24.8828 58.5741 25.2583 58.6634 25.6999C58.7528 26.1414 58.7277 26.6223 58.5883 27.1426C58.4495 27.6607 58.2313 28.0875 57.9337 28.4231C57.6362 28.7586 57.2833 28.9872 56.8751 29.1088C56.4669 29.2304 56.0277 29.2282 55.5575 29.1022ZM55.7804 28.2835C56.0851 28.3652 56.3592 28.3523 56.6026 28.2449C56.8461 28.1374 57.0515 27.9627 57.2191 27.7206C57.3888 27.4791 57.5168 27.1973 57.6031 26.8751C57.6888 26.5551 57.7186 26.2481 57.6924 25.9541C57.6689 25.6585 57.5789 25.4023 57.4224 25.1853C57.2659 24.9684 57.0353 24.8191 56.7305 24.7375C56.4236 24.6552 56.147 24.6686 55.9008 24.7776C55.6568 24.8872 55.4497 25.0639 55.2794 25.3076C55.1119 25.5496 54.9852 25.8307 54.8995 26.1507C54.8132 26.4728 54.782 26.7806 54.8061 27.074C54.8323 27.368 54.9239 27.6224 55.081 27.8372C55.2403 28.0525 55.4734 28.2013 55.7804 28.2835ZM67.2754 27.2305C67.2654 27.0155 67.228 26.8153 67.1633 26.63C67.1014 26.4431 67.0124 26.2746 66.8963 26.1245C66.7808 25.9723 66.6373 25.8416 66.4659 25.7327C66.2966 25.6244 66.1009 25.5404 65.8789 25.4809C65.5023 25.38 65.1368 25.3859 64.7823 25.4986C64.4278 25.6112 64.1122 25.8312 63.8356 26.1583C63.5617 26.4839 63.3524 26.9166 63.2078 27.4565C63.0625 27.9985 63.0279 28.4803 63.1039 28.902C63.1799 29.3236 63.3454 29.6725 63.6004 29.9484C63.8555 30.2244 64.1789 30.4149 64.5707 30.5199C64.9342 30.6173 65.2708 30.6282 65.5804 30.5525C65.8921 30.4773 66.1582 30.3247 66.3785 30.0944C66.6017 29.8625 66.7625 29.5627 66.8611 29.1948L67.1092 29.3138L65.1957 28.8011L65.4188 27.9684L68.0474 28.6727L67.8435 29.4335C67.693 29.9951 67.4426 30.4507 67.0924 30.8001C66.7449 31.1479 66.331 31.3777 65.8508 31.4893C65.3728 31.6016 64.8638 31.5853 64.324 31.4407C63.7188 31.2785 63.225 30.9969 62.8425 30.5958C62.4622 30.1952 62.2133 29.7051 62.0957 29.1253C61.9786 28.5433 62.0146 27.8997 62.2036 27.1944C62.3465 26.6611 62.5488 26.202 62.8106 25.8172C63.0723 25.4324 63.3768 25.1278 63.7238 24.9035C64.0737 24.6776 64.4514 24.535 64.8569 24.4757C65.2652 24.4148 65.6859 24.4423 66.1191 24.5584C66.4804 24.6552 66.8025 24.7987 67.0852 24.9887C67.37 25.1794 67.6081 25.4053 67.7995 25.6666C67.9929 25.9284 68.1341 26.2159 68.2228 26.529C68.3122 26.8399 68.3414 27.1662 68.3105 27.5079L67.2754 27.2305ZM70.4673 33.0973C69.9732 32.9649 69.5759 32.7453 69.2755 32.4385C68.9778 32.1301 68.7837 31.7573 68.6932 31.3201C68.6055 30.8813 68.6313 30.4017 68.7707 29.8815C68.9084 29.3677 69.1255 28.9406 69.4221 28.6001C69.7208 28.2602 70.0727 28.0267 70.4777 27.8996C70.8849 27.773 71.3214 27.7722 71.7872 27.897C72.0702 27.9728 72.332 28.0931 72.5725 28.2579C72.8129 28.4226 73.0119 28.6335 73.1694 28.8903C73.3269 29.1471 73.4237 29.4519 73.4599 29.8045C73.4966 30.155 73.4541 30.5577 73.3322 31.0127L73.2394 31.3588L69.2526 30.2905L69.4486 29.5591L72.4787 30.3711C72.5475 30.1142 72.5562 29.8727 72.5048 29.6466C72.454 29.4184 72.3493 29.2212 72.1909 29.0551C72.0346 28.8895 71.8302 28.7729 71.5777 28.7053C71.3034 28.6318 71.0459 28.6351 70.8051 28.7152C70.567 28.7938 70.3637 28.9259 70.1949 29.1117C70.0289 29.2958 69.9124 29.5131 69.8453 29.7634L69.6922 30.3348C69.6023 30.6701 69.5847 30.971 69.6393 31.2376C69.696 31.5047 69.8144 31.729 69.9945 31.9102C70.1751 32.0893 70.4081 32.217 70.6932 32.2934C70.8783 32.343 71.054 32.3621 71.2203 32.3506C71.3873 32.3371 71.5406 32.2918 71.6802 32.2149C71.8198 32.138 71.9399 32.029 72.0407 31.888L72.9202 32.3022C72.7732 32.5544 72.5766 32.7572 72.3302 32.9105C72.0866 33.0622 71.8059 33.1562 71.4882 33.1924C71.1733 33.227 70.833 33.1953 70.4673 33.0973ZM77.4145 29.4748L77.2045 30.2585L74.465 29.5244L74.675 28.7408L77.4145 29.4748ZM75.7316 27.736L76.7079 27.9976L75.4367 32.742C75.3859 32.9314 75.376 33.0815 75.407 33.1925C75.4385 33.3012 75.4942 33.385 75.5741 33.4437C75.6568 33.5009 75.7515 33.5438 75.8581 33.5723C75.9365 33.5933 76.0065 33.6063 76.0682 33.6111C76.1299 33.616 76.1779 33.6195 76.2123 33.6218L76.1726 34.4755C76.1101 34.4821 76.0238 34.4823 75.9134 34.4761C75.8025 34.472 75.6684 34.4501 75.5111 34.4103C75.2531 34.3458 75.0259 34.2359 74.8295 34.0806C74.6331 33.9254 74.4932 33.7292 74.4097 33.4922C74.3263 33.2552 74.3251 32.9854 74.4061 32.6828L75.7316 27.736ZM84.6308 31.4994C84.6788 31.181 84.5992 30.903 84.3922 30.6656C84.1858 30.4259 83.891 30.2548 83.5079 30.1521C83.2336 30.0786 82.9847 30.0586 82.7611 30.092C82.5381 30.1232 82.3509 30.1991 82.1997 30.3195C82.0512 30.4384 81.9515 30.5925 81.9008 30.7819C81.8582 30.9408 81.8585 31.0879 81.9016 31.2231C81.9468 31.3589 82.0199 31.4823 82.1208 31.5933C82.2245 31.7027 82.3401 31.8025 82.4676 31.8927C82.5957 31.9807 82.7206 32.0585 82.8425 32.1261L83.45 32.4709C83.6494 32.5803 83.8492 32.7097 84.0495 32.859C84.2498 33.0083 84.4262 33.1816 84.5786 33.3787C84.7311 33.5759 84.8373 33.798 84.8971 34.045C84.9591 34.2926 84.9498 34.5666 84.8693 34.867C84.7678 35.2458 84.5797 35.5558 84.3051 35.7972C84.0326 36.0392 83.6886 36.1955 83.273 36.2661C82.8597 36.3373 82.3917 36.3029 81.8693 36.1629C81.3686 36.0288 80.9567 35.8333 80.6336 35.5764C80.3105 35.3195 80.0846 35.0175 79.956 34.6704C79.8279 34.3211 79.807 33.9422 79.8931 33.5336L80.9053 33.8048C80.8602 34.0517 80.8846 34.2741 80.9786 34.4719C81.0753 34.6681 81.2209 34.8343 81.4154 34.9704C81.6127 35.1049 81.8408 35.2069 82.0999 35.2763C82.385 35.3527 82.6506 35.3761 82.8966 35.3463C83.1453 35.3149 83.3554 35.2359 83.527 35.1093C83.6992 34.9804 83.8144 34.8072 83.8728 34.5895C83.9258 34.3914 83.9127 34.214 83.8333 34.0575C83.7562 33.9015 83.6329 33.7564 83.4635 33.6224C83.2962 33.4889 83.1014 33.3585 82.8788 33.2313L82.1464 32.804C81.65 32.5147 81.2829 32.1865 81.0453 31.8196C80.8099 31.4532 80.7545 31.037 80.8794 30.5712C80.9826 30.1859 81.1772 29.8776 81.4632 29.6462C81.7491 29.4149 82.0919 29.2676 82.4915 29.2043C82.8916 29.1389 83.3159 29.1663 83.7644 29.2864C84.2171 29.4078 84.5953 29.5942 84.8988 29.8459C85.2045 30.0981 85.4202 30.3904 85.5458 30.7227C85.672 31.0528 85.6913 31.3986 85.6038 31.7601L84.6308 31.4994ZM89.1865 32.6291L88.9765 33.4128L86.237 32.6787L86.4469 31.895L89.1865 32.6291ZM87.5036 30.8903L88.4799 31.1519L87.2086 35.8963C87.1579 36.0857 87.148 36.2358 87.1789 36.3468C87.2104 36.4555 87.2661 36.5393 87.3461 36.598C87.4287 36.6552 87.5234 36.698 87.6301 36.7266C87.7084 36.7476 87.7785 36.7606 87.8402 36.7654C87.9018 36.7703 87.9499 36.7738 87.9843 36.776L87.9445 37.6298C87.8821 37.6364 87.7957 37.6366 87.6854 37.6304C87.5745 37.6263 87.4404 37.6044 87.2831 37.5646C87.025 37.5001 86.7978 37.3902 86.6015 37.2349C86.4051 37.0797 86.2652 36.8835 86.1817 36.6465C86.0982 36.4095 86.097 36.1397 86.1781 35.8371L87.5036 30.8903ZM90.3524 38.436C90.0346 38.3508 89.763 38.215 89.5376 38.0287C89.3128 37.8401 89.1557 37.6125 89.0661 37.3459C88.9787 37.0798 88.9791 36.7825 89.0672 36.4538C89.143 36.1708 89.2598 35.9524 89.4177 35.7988C89.5755 35.6451 89.7612 35.5397 89.9748 35.4826C90.1885 35.4255 90.4168 35.4004 90.66 35.4072C90.9031 35.414 91.1471 35.4351 91.392 35.4703C91.7017 35.516 91.9531 35.553 92.1461 35.5814C92.3398 35.6077 92.486 35.606 92.5849 35.5765C92.6838 35.547 92.749 35.4735 92.7805 35.3559L92.7866 35.3331C92.863 35.0479 92.8417 34.8054 92.7226 34.6055C92.6057 34.4062 92.3894 34.2643 92.0738 34.1797C91.7451 34.0916 91.4665 34.0951 91.238 34.1902C91.0123 34.2837 90.8399 34.409 90.7209 34.5661L89.8593 34.1113C90.0498 33.8357 90.2747 33.6323 90.5338 33.5011C90.7957 33.3683 91.0751 33.2962 91.3722 33.2848C91.6698 33.2712 91.9699 33.3049 92.2725 33.386C92.4727 33.4397 92.6785 33.5205 92.8899 33.6284C93.1041 33.7348 93.2925 33.8763 93.4551 34.0529C93.62 34.23 93.7346 34.4509 93.799 34.7155C93.8641 34.9779 93.8476 35.2919 93.7496 35.6576L92.8572 38.9881L91.9037 38.7327L92.0874 38.047L92.0483 38.0365C91.9513 38.1458 91.8234 38.2445 91.6644 38.3326C91.5055 38.4207 91.3162 38.4784 91.0966 38.5059C90.8769 38.5334 90.6288 38.51 90.3524 38.436ZM90.7746 37.7092C91.0445 37.7815 91.2895 37.79 91.5097 37.7347C91.732 37.6799 91.9163 37.58 92.0625 37.4348C92.2115 37.2881 92.3125 37.1157 92.3656 36.9176L92.5388 36.2711C92.4946 36.2966 92.4184 36.3112 92.3101 36.3148C92.2046 36.3169 92.0857 36.3118 91.9537 36.2998C91.8222 36.2855 91.6942 36.2711 91.5698 36.2564C91.446 36.2396 91.3424 36.2258 91.2589 36.2151C91.0631 36.1883 90.8793 36.1822 90.7074 36.1968C90.5377 36.212 90.3917 36.2604 90.2695 36.342C90.1501 36.422 90.0671 36.549 90.0204 36.7232C89.9556 36.9648 89.9959 37.1716 90.1412 37.3435C90.287 37.5132 90.4981 37.6351 90.7746 37.7092ZM94.1575 39.3366L95.5014 34.3212L96.4451 34.574L96.2316 35.3707L96.2838 35.3847C96.4476 35.1393 96.6655 34.9702 96.9377 34.8775C97.2126 34.7832 97.497 34.7754 97.7909 34.8541C97.8518 34.8705 97.9231 34.8919 98.0046 34.9184C98.0883 34.9455 98.1533 34.9688 98.1994 34.9881L97.9492 35.922C97.9129 35.9006 97.8465 35.87 97.7498 35.8301C97.6538 35.788 97.5557 35.7535 97.4556 35.7267C97.2248 35.6649 97.006 35.6587 96.7991 35.7083C96.5949 35.7562 96.4175 35.8522 96.267 35.9962C96.117 36.138 96.0128 36.3177 95.9545 36.5354L95.1338 39.5982L94.1575 39.3366ZM101.668 35.9735L101.458 36.7571L98.7183 36.0231L98.9283 35.2394L101.668 35.9735ZM99.9849 34.2347L100.961 34.4963L99.69 39.2406C99.6392 39.43 99.6293 39.5802 99.6602 39.6911C99.6918 39.7999 99.7475 39.8836 99.8274 39.9424C99.9101 39.9995 100.005 40.0424 100.111 40.071C100.19 40.092 100.26 40.1049 100.321 40.1098C100.383 40.1146 100.431 40.1182 100.466 40.1204L100.426 40.9742C100.363 40.9808 100.277 40.981 100.167 40.9747C100.056 40.9707 99.9217 40.9487 99.7644 40.9089C99.5064 40.8444 99.2792 40.7346 99.0828 40.5793C98.8864 40.424 98.7465 40.2279 98.663 39.9909C98.5795 39.7539 98.5783 39.4841 98.6594 39.1815L99.9849 34.2347ZM102.031 41.5126C101.852 41.4648 101.715 41.3605 101.621 41.1999C101.527 41.037 101.504 40.8653 101.552 40.6846C101.6 40.5061 101.705 40.3709 101.868 40.2791C102.03 40.1851 102.201 40.162 102.38 40.2098C102.558 40.2576 102.694 40.363 102.788 40.5258C102.883 40.6865 102.906 40.8561 102.859 41.0346C102.826 41.1543 102.767 41.256 102.679 41.3399C102.594 41.4221 102.494 41.4794 102.381 41.512C102.267 41.5445 102.15 41.5447 102.031 41.5126ZM104.635 42.2104C104.456 42.1625 104.319 42.0583 104.225 41.8976C104.131 41.7348 104.108 41.563 104.156 41.3823C104.204 41.2038 104.309 41.0687 104.472 40.9768C104.634 40.8828 104.805 40.8597 104.984 40.9075C105.162 40.9554 105.298 41.0607 105.392 41.2236C105.487 41.3842 105.51 41.5538 105.463 41.7323C105.43 41.852 105.371 41.9538 105.283 42.0376C105.198 42.1198 105.098 42.1772 104.985 42.2097C104.871 42.2422 104.754 42.2424 104.635 42.2104Z" fill="#061C3D"/>
</svg>
