<svg width="34" height="38" viewBox="0 0 34 38" fill="none" xmlns="http://www.w3.org/2000/svg">
<path d="M27.8586 3.38866L17.5214 0.08113C17.1829 -0.0270433 16.8171 -0.0270433 16.4786 0.08113L6.14135 3.38866C4.4978 3.91255 3.06809 4.92013 2.05536 6.26824C1.04264 7.61636 0.498413 9.23644 0.500003 10.8983V19.0001C0.500003 30.9747 15.68 37.5881 16.3301 37.8636C16.541 37.9535 16.7692 38 17 38C17.2308 38 17.459 37.9535 17.6699 37.8636C18.32 37.5881 33.5 30.9747 33.5 19.0001V10.8983C33.5016 9.23644 32.9574 7.61636 31.9446 6.26824C30.9319 4.92013 29.5022 3.91255 27.8586 3.38866ZM24.7847 15.3854L17.7359 22.1493C17.4475 22.4279 17.1042 22.6488 16.7261 22.7991C16.3479 22.9494 15.9424 23.0262 15.5332 23.0249H15.4787C15.0611 23.0187 14.6491 22.9314 14.2676 22.7681C13.8862 22.6048 13.5432 22.369 13.2595 22.0749L9.45455 18.2749C9.28977 18.1282 9.15796 17.9508 9.06722 17.7534C8.97648 17.5561 8.92871 17.343 8.92685 17.1273C8.92499 16.9117 8.96908 16.6979 9.05641 16.4991C9.14374 16.3004 9.27247 16.1208 9.4347 15.9715C9.59693 15.8222 9.78924 15.7063 9.99984 15.6309C10.2104 15.5555 10.4349 15.5221 10.6594 15.5329C10.8839 15.5437 11.1037 15.5984 11.3054 15.6937C11.5071 15.7889 11.6863 15.9227 11.8322 16.0868L15.5348 19.7917L22.445 13.1418C22.7562 12.8534 23.173 12.6938 23.6056 12.6975C24.0382 12.7011 24.4521 12.8676 24.758 13.1611C25.0639 13.4547 25.2375 13.8518 25.2412 14.2669C25.245 14.6821 25.0787 15.082 24.7781 15.3806L24.7847 15.3854Z" fill="white"/>
</svg>
