<svg width="34" height="34" viewBox="0 0 34 34" fill="none" xmlns="http://www.w3.org/2000/svg">
<g clip-path="url(#clip0_241_696)">
<path d="M25.105 4.25L23.1033 1.65467C22.7045 1.14156 22.1942 0.725923 21.611 0.439243C21.0279 0.152563 20.3871 0.00235598 19.7373 0L14.2633 0C13.6134 0.00235598 12.9727 0.152563 12.3895 0.439243C11.8063 0.725923 11.296 1.14156 10.8973 1.65467L8.89551 4.25H25.105Z" fill="white"/>
<path d="M16.9997 25.5001C20.1293 25.5001 22.6663 22.963 22.6663 19.8334C22.6663 16.7038 20.1293 14.1667 16.9997 14.1667C13.8701 14.1667 11.333 16.7038 11.333 19.8334C11.333 22.963 13.8701 25.5001 16.9997 25.5001Z" fill="white"/>
<path d="M26.9167 7.08325H7.08333C5.20541 7.0855 3.40504 7.8325 2.07714 9.1604C0.749249 10.4883 0.00224946 12.2887 0 14.1666L0 26.9166C0.00224946 28.7945 0.749249 30.5949 2.07714 31.9228C3.40504 33.2507 5.20541 33.9977 7.08333 33.9999H26.9167C28.7946 33.9977 30.595 33.2507 31.9229 31.9228C33.2508 30.5949 33.9977 28.7945 34 26.9166V14.1666C33.9977 12.2887 33.2508 10.4883 31.9229 9.1604C30.595 7.8325 28.7946 7.0855 26.9167 7.08325ZM17 28.3333C15.3189 28.3333 13.6755 27.8347 12.2777 26.9007C10.8798 25.9668 9.79037 24.6392 9.14702 23.0861C8.50368 21.5329 8.33535 19.8238 8.66332 18.175C8.9913 16.5261 9.80085 15.0116 10.9896 13.8228C12.1783 12.6341 13.6929 11.8246 15.3417 11.4966C16.9906 11.1686 18.6996 11.3369 20.2528 11.9803C21.806 12.6236 23.1335 13.7131 24.0675 15.1109C25.0015 16.5087 25.5 18.1521 25.5 19.8333C25.4977 22.0869 24.6015 24.2476 23.0079 25.8412C21.4144 27.4347 19.2536 28.331 17 28.3333Z" fill="white"/>
</g>
<defs>
<clipPath id="clip0_241_696">
<rect width="34" height="34" fill="white"/>
</clipPath>
</defs>
</svg>
