<svg width="21" height="21" viewBox="0 0 21 21" fill="none" xmlns="http://www.w3.org/2000/svg">
<path d="M20.2955 12.3244L18.4064 14.2117V15.7185C18.4064 17.1657 17.2287 18.3435 15.7814 18.3435H14.2755L12.3873 20.2309C11.8929 20.7261 11.2332 21 10.5314 21C9.82966 21 9.17078 20.727 8.67553 20.2309L6.78816 18.3435H5.28141C3.83416 18.3435 2.65641 17.1657 2.65641 15.7185V14.2117L0.769033 12.3244C-0.254717 11.3015 -0.254717 9.63548 0.769033 8.61172L2.65641 6.72435V5.21848C2.65641 3.77122 3.83416 2.59347 5.28141 2.59347H6.78816L8.67553 0.705225C9.66778 -0.287901 11.3977 -0.285276 12.3882 0.705225L14.2755 2.5926H15.7814C16.2653 2.5926 16.6564 2.9846 16.6564 3.4676C16.6564 3.9506 16.2653 4.3426 15.7814 4.3426H13.9133C13.6805 4.3426 13.4583 4.25072 13.2947 4.08623L11.15 1.9416C10.8202 1.6126 10.2453 1.61085 9.91278 1.9416L7.76903 4.08623C7.60453 4.25072 7.38316 4.3426 7.15041 4.3426H5.28141C4.79841 4.3426 4.40641 4.73547 4.40641 5.2176V7.08572C4.40641 7.3176 4.31453 7.54073 4.15003 7.70435L2.00628 9.8481C1.66503 10.1894 1.66503 10.7441 2.00628 11.0862L4.15003 13.23C4.31453 13.3945 4.40641 13.6159 4.40641 13.8486V15.7176C4.40641 16.2006 4.79841 16.5926 5.28141 16.5926H7.15041C7.38316 16.5926 7.60541 16.6845 7.76903 16.849L9.91278 18.9927C10.2444 19.3235 10.8202 19.3235 11.1492 18.9927L13.2947 16.849C13.4592 16.6845 13.6805 16.5926 13.9133 16.5926H15.7814C16.2644 16.5926 16.6564 16.2006 16.6564 15.7176V13.8486C16.6564 13.6159 16.7483 13.3936 16.9128 13.23L19.0574 11.0862C19.3987 10.745 19.3987 10.1894 19.0574 9.8481C18.7162 9.50598 18.7162 8.9521 19.0574 8.61085C19.3995 8.2696 19.9534 8.26872 20.2955 8.61085C21.3175 9.63373 21.3175 11.2989 20.2955 12.3226V12.3244ZM9.38078 11.9542L6.74003 9.33973C6.39528 8.99848 5.84316 9.00285 5.50191 9.34585C5.16153 9.68885 5.16503 10.2427 5.50803 10.5831L8.14966 13.1985C8.68691 13.7305 9.39391 13.9973 10.1 13.9973C10.8062 13.9973 11.5149 13.7287 12.053 13.1941L19.8668 5.43198C20.2098 5.0916 20.2115 4.53772 19.8703 4.19473C19.529 3.85173 18.976 3.8491 18.633 4.19035L10.8193 11.9534C10.4229 12.348 9.77803 12.348 9.38078 11.9542Z" fill="#494949"/>
</svg>
