<svg width="20" height="20" viewBox="0 0 20 20" fill="none" xmlns="http://www.w3.org/2000/svg">
<path d="M15.8333 0H4.16667C1.86917 0 0 1.86917 0 4.16667V10.8333C0 13.1308 1.86917 15 4.16667 15H15.8333C18.1308 15 20 13.1308 20 10.8333V4.16667C20 1.86917 18.1308 0 15.8333 0ZM18.3333 10.8333C18.3333 12.2117 17.2117 13.3333 15.8333 13.3333H4.16667C2.78833 13.3333 1.66667 12.2117 1.66667 10.8333V4.16667C1.66667 2.78833 2.78833 1.66667 4.16667 1.66667H15.8333C17.2117 1.66667 18.3333 2.78833 18.3333 4.16667V10.8333ZM8.33333 18.3333C8.33333 19.2542 7.5875 20 6.66667 20C5.74583 20 5 19.2542 5 18.3333C5 17.4125 5.74583 16.6667 6.66667 16.6667C7.5875 16.6667 8.33333 17.4125 8.33333 18.3333ZM12.7742 5.84083L9.44333 3.99C8.24 3.2675 6.57667 4.24583 6.62333 5.64917V9.35C6.57583 10.7533 8.24 11.7308 9.44333 11.0092L12.775 9.15833C14.0575 8.49583 14.0567 6.5025 12.7742 5.84083ZM11.9642 7.70167L8.63333 9.5525C8.5375 9.60583 8.45583 9.58 8.40417 9.55C8.3525 9.51917 8.29 9.46 8.29 9.35083V5.64917C8.29 5.54 8.35167 5.48 8.40417 5.45C8.43417 5.4325 8.47417 5.41583 8.52167 5.41583C8.55583 5.41583 8.59333 5.42417 8.63417 5.44667L11.965 7.2975C12.0642 7.3525 12.085 7.4375 12.085 7.5C12.085 7.5625 12.0642 7.6475 11.9658 7.7025L11.9642 7.70167ZM20 18.3325C20 18.7933 19.6267 19.1658 19.1667 19.1658H10.8333C10.3733 19.1658 10 18.7933 10 18.3325C10 17.8717 10.3733 17.4992 10.8333 17.4992H19.1667C19.6267 17.4992 20 17.8717 20 18.3325ZM3.33333 18.3325C3.33333 18.7933 2.96 19.1658 2.5 19.1658H0.833333C0.373333 19.1658 0 18.7933 0 18.3325C0 17.8717 0.373333 17.4992 0.833333 17.4992H2.5C2.96 17.4992 3.33333 17.8717 3.33333 18.3325Z" fill="#494949"/>
</svg>
