<?xml version="1.0" encoding="UTF-8"?>
<svg xmlns="http://www.w3.org/2000/svg" id="Layer_1" data-name="Layer 1" viewBox="0 0 24 24">
  <path d="M8,20c1.105,0,2,.895,2,2s-.895,2-2,2-2-.895-2-2,.895-2,2-2Zm2.36-13.463c-.188-.095-.4,.006-.412,.243v4.441c.023,.235,.196,.337,.412,.243l3.997-2.221c.2-.138,.2-.348,0-.485l-3.997-2.221Zm13.64-1.537V13c0,2.757-2.243,5-5,5H5c-2.757,0-5-2.243-5-5V5C0,2.243,2.243,0,5,0h14c2.757,0,5,2.243,5,5Zm-7.5,4c0-.826-.449-1.589-1.171-1.991l-3.997-2.221c-1.444-.867-3.44,.307-3.384,1.991v4.441c-.057,1.684,1.94,2.857,3.384,1.991l3.998-2.221c.722-.402,1.171-1.165,1.171-1.991Zm7.5,13c0-.553-.448-1-1-1H13c-.552,0-1,.447-1,1s.448,1,1,1h10c.552,0,1-.447,1-1Zm-20,0c0-.553-.448-1-1-1H1c-.552,0-1,.447-1,1s.448,1,1,1H3c.552,0,1-.447,1-1Z"/>
</svg>
