<svg width="19" height="18" viewBox="0 0 19 18" fill="none" xmlns="http://www.w3.org/2000/svg">
<path d="M14.25 9C11.6304 9 9.5 11.0182 9.5 13.5C9.5 15.9818 11.6304 18 14.25 18C16.8696 18 19 15.9818 19 13.5C19 11.0182 16.8696 9 14.25 9ZM14.25 16.5C12.5036 16.5 11.0833 15.1545 11.0833 13.5C11.0833 11.8455 12.5036 10.5 14.25 10.5C15.9964 10.5 17.4167 11.8455 17.4167 13.5C17.4167 15.1545 15.9964 16.5 14.25 16.5ZM15.6014 13.7197C15.9109 14.013 15.9109 14.487 15.6014 14.7803C15.447 14.9265 15.2443 15 15.0417 15C14.839 15 14.6363 14.9265 14.482 14.7803L13.6903 14.0303C13.5415 13.8893 13.4583 13.6987 13.4583 13.5V12C13.4583 11.586 13.8122 11.25 14.25 11.25C14.6878 11.25 15.0417 11.586 15.0417 12V13.1895L15.6014 13.7197ZM19 3.75V7.5C19 7.914 18.6461 8.25 18.2083 8.25C17.7705 8.25 17.4167 7.914 17.4167 7.5V3.75C17.4167 2.5095 16.3511 1.5 15.0417 1.5H3.95833C2.64892 1.5 1.58333 2.5095 1.58333 3.75V11.25C1.58333 12.4905 2.64892 13.5 3.95833 13.5H7.125C7.56279 13.5 7.91667 13.836 7.91667 14.25C7.91667 14.664 7.56279 15 7.125 15H3.95833C1.77571 15 0 13.3177 0 11.25V3.75C0 1.68225 1.77571 0 3.95833 0H15.0417C17.2243 0 19 1.68225 19 3.75ZM11.7895 8.358L8.51438 10.0815C7.89133 10.4093 7.125 9.9825 7.125 9.30675V5.859C7.125 5.18325 7.89133 4.7565 8.51438 5.08425L11.7895 6.8085C12.4308 7.146 12.4308 8.0205 11.7895 8.358Z" fill="#494949"/>
</svg>
